<?xml version="1.0" encoding="UTF-8"?>
<svg width="300" height="300" version="1.1" viewBox="0 0 79.375 79.375" xmlns="http://www.w3.org/2000/svg">
 <g transform="matrix(2.8348 0 0 2.8348 -5.6696 -5.6696)">
  <rect x="2" y="2" width="28" height="28" style="fill:#f5de19"/>
  <path d="m20.809 23.875a2.866 2.866 0 0 0 2.6 1.6c1.09 0 1.787-0.545 1.787-1.3 0-0.9-0.716-1.222-1.916-1.747l-0.658-0.282c-1.9-0.809-3.16-1.822-3.16-3.964 0-1.973 1.5-3.476 3.853-3.476a3.889 3.889 0 0 1 3.742 2.107l-2.057 1.315a1.789 1.789 0 0 0-1.689-1.128 1.145 1.145 0 0 0-1.259 1.128c0 0.789 0.489 1.109 1.618 1.6l0.658 0.282c2.236 0.959 3.5 1.936 3.5 4.133 0 2.369-1.861 3.667-4.36 3.667a5.055 5.055 0 0 1-4.795-2.691zm-9.295 0.228c0.413 0.733 0.789 1.353 1.693 1.353 0.864 0 1.41-0.338 1.41-1.653v-8.947h2.631v8.982c0 2.724-1.6 3.964-3.929 3.964a4.085 4.085 0 0 1-3.947-2.4z"/>
 </g>
</svg>
